<svg width="16" height="20" viewBox="0 0 16 20" fill="none" xmlns="http://www.w3.org/2000/svg">
<path d="M8.06498 0.00320939V0C8.04299 0 8.0215 0.00128374 8 0.00128374C7.9785 0.00128374 7.95701 0 7.93502 0V0.00320939C3.54102 0.0715696 0 3.5735 0 7.88677C0 13.6992 6.97834 19.2161 8 20C9.02182 19.2163 16 13.699 16 7.88677C16 3.5735 12.4591 0.0715696 8.06498 0.00320939ZM8.06498 11.2793C5.76584 11.2793 3.90236 9.45729 3.90236 7.20927C3.90236 4.9606 5.76584 3.13831 8.06498 3.13831C10.3641 3.13831 12.2278 4.9606 12.2278 7.20927C12.2278 9.45729 10.3641 11.2793 8.06498 11.2793Z" fill="white"/>
</svg>
