<svg id="icon" xmlns="http://www.w3.org/2000/svg" viewBox="0 0 512 512">
    <path  transform="translate(1 1)"
        d="M285.17,255L504.752,35.418c8.331-8.331,8.331-21.839,0-30.17c-8.331-8.331-21.839-8.331-30.17,0L255,224.83L35.418,5.248
            c-8.331-8.331-21.839-8.331-30.17,0c-8.331,8.331-8.331,21.839,0,30.17L224.83,255L5.248,474.582
            c-8.331,8.331-8.331,21.839,0,30.17c8.331,8.331,21.839,8.331,30.17,0L255,285.17l219.582,219.582
            c8.331,8.331,21.839,8.331,30.17,0c8.331-8.331,8.331-21.839,0-30.17L285.17,255z"/>
</svg>    
